nColumns=28
nRows=33
DataType=double
version=3
OpenSimVersion=4.1
endheader
time	ground_force_1_vx	ground_force_1_vy	ground_force_1_vz	ground_force_1_px	ground_force_1_py	ground_force_1_pz	ground_force_1_mx	ground_force_1_my	ground_force_1_mz	ground_force_2_vx	ground_force_2_vy	ground_force_2_vz	ground_force_2_px	ground_force_2_py	ground_force_2_pz	ground_force_2_mx	ground_force_2_my	ground_force_2_mz	ground_force_3_vx	ground_force_3_vy	ground_force_3_vz	ground_force_3_px	ground_force_3_py	ground_force_3_pz	ground_force_3_mx	ground_force_3_my	ground_force_3_mz
0	-1.22986	402.73	-54.9237	-0.261542	0.006	-0.401462	0	-0.657891	0	3.78057	410.702	55.1937	-0.263785	0.006	-0.864628	0	0.262206	0	0	0	0	0	0	0	0	0	0
0.01	-1.21013	402.397	-54.8399	-0.261469	0.006	-0.401548	0	-0.652416	0	3.79098	411.032	55.193	-0.263831	0.006	-0.864647	0	0.249744	0	0	0	0	0	0	0	0	0	0
0.02	-1.20711	402	-54.7451	-0.261375	0.006	-0.401624	0	-0.64691	0	3.79516	411.436	55.2003	-0.263854	0.006	-0.864663	0	0.236595	0	0	0	0	0	0	0	0	0	0
0.03	-1.22545	401.536	-54.6397	-0.261256	0.006	-0.401684	0	-0.641575	0	3.79088	411.911	55.2157	-0.263847	0.006	-0.864673	0	0.222949	0	0	0	0	0	0	0	0	0	0
0.04	-1.26933	401.002	-54.5236	-0.261108	0.006	-0.401728	0	-0.63659	0	3.77591	412.454	55.2381	-0.263806	0.006	-0.864677	0	0.208856	0	0	0	0	0	0	0	0	0	0
0.05	-1.34224	400.4	-54.3971	-0.260926	0.006	-0.401751	0	-0.632141	0	3.74777	413.057	55.2653	-0.263727	0.006	-0.864675	0	0.194289	0	0	0	0	0	0	0	0	0	0
0.06	-1.44775	399.737	-54.2617	-0.260704	0.006	-0.401754	0	-0.628421	0	3.70392	413.709	55.2941	-0.263608	0.006	-0.864667	0	0.179085	0	0	0	0	0	0	0	0	0	0
0.07	-1.59001	399.028	-54.1212	-0.260438	0.006	-0.401733	0	-0.625682	0	3.64177	414.392	55.32	-0.263444	0.006	-0.864654	0	0.163024	0	0	0	0	0	0	0	0	0	0
0.08	-1.77373	398.293	-53.9806	-0.260122	0.006	-0.401688	0	-0.624215	0	3.55844	415.081	55.338	-0.263233	0.006	-0.864636	0	0.145924	0	0	0	0	0	0	0	0	0	0
0.09	-2.00359	397.558	-53.8466	-0.259751	0.006	-0.401614	0	-0.624315	0	3.45081	415.743	55.343	-0.262972	0.006	-0.864615	0	0.127679	0	0	0	0	0	0	0	0	0	0
0.1	-2.28351	396.851	-53.7266	-0.259317	0.006	-0.401511	0	-0.626233	0	3.31591	416.341	55.3293	-0.262659	0.006	-0.864592	0	0.108314	0	0	0	0	0	0	0	0	0	0
0.11	-2.61599	396.199	-53.6275	-0.258817	0.006	-0.401377	0	-0.630042	0	3.15104	416.833	55.2922	-0.26229	0.006	-0.864568	0	0.087975	0	0	0	0	0	0	0	0	0	0
0.12	-3.00171	395.623	-53.5551	-0.258247	0.006	-0.401209	0	-0.635675	0	2.95337	417.182	55.2276	-0.261865	0.006	-0.864545	0	0.066942	0	0	0	0	0	0	0	0	0	0
0.13	-3.43931	395.138	-53.5134	-0.257606	0.006	-0.401008	0	-0.643019	0	2.7202	417.353	55.1326	-0.26138	0.006	-0.864525	0	0.045656	0	0	0	0	0	0	0	0	0	0
0.14	-3.92464	394.746	-53.5047	-0.256899	0.006	-0.400776	0	-0.652117	0	2.44991	417.321	55.005	-0.260836	0.006	-0.86451	0	0.024753	0	0	0	0	0	0	0	0	0	0
0.15	-4.44991	394.449	-53.5293	-0.256133	0.006	-0.400515	0	-0.663149	0	2.14265	417.065	54.8437	-0.260233	0.006	-0.864503	0	0.005119	0	0	0	0	0	0	0	0	0	0
0.16	-5.0042	394.243	-53.5868	-0.255319	0.006	-0.40023	0	-0.676386	0	1.79957	416.571	54.6478	-0.259572	0.006	-0.864504	0	-0.012322	0	0	0	0	0	0	0	0	0	0
0.17	-5.5746	394.125	-53.6754	-0.254471	0.006	-0.399925	0	-0.692116	0	1.42258	415.827	54.4169	-0.258857	0.006	-0.864517	0	-0.026689	0	0	0	0	0	0	0	0	0	0
0.18	-6.14707	394.091	-53.7935	-0.253604	0.006	-0.399605	0	-0.710572	0	1.01459	414.823	54.1508	-0.258091	0.006	-0.864543	0	-0.037103	0	0	0	0	0	0	0	0	0	0
0.19	-6.70869	394.136	-53.94	-0.252735	0.006	-0.399273	0	-0.731837	0	0.579363	413.549	53.8498	-0.257278	0.006	-0.864585	0	-0.042657	0	0	0	0	0	0	0	0	0	0
0.2	-7.24878	394.261	-54.1157	-0.25188	0.006	-0.398934	0	-0.755868	0	0.122009	411.996	53.515	-0.256426	0.006	-0.864646	0	-0.04247	0	0	0	0	0	0	0	0	0	0
0.21	-7.75927	394.466	-54.3232	-0.251053	0.006	-0.398594	0	-0.782498	0	-0.349813	410.159	53.149	-0.255542	0.006	-0.864726	0	-0.03575	0	0	0	0	0	0	0	0	0	0
0.22	-8.23326	394.755	-54.5653	-0.250267	0.006	-0.398255	0	-0.811497	0	-0.826921	408.039	52.7568	-0.254637	0.006	-0.86483	0	-0.021969	0	0	0	0	0	0	0	0	0	0
0.23	-8.66387	395.129	-54.8433	-0.249535	0.006	-0.397921	0	-0.842598	0	-1.30204	405.647	52.3465	-0.253719	0.006	-0.864959	0	-0.000875	0	0	0	0	0	0	0	0	0	0
0.24	-9.04405	395.581	-55.1559	-0.248868	0.006	-0.397596	0	-0.875492	0	-1.77223	403.003	51.9288	-0.252798	0.006	-0.865116	0	0.027473	0	0	0	0	0	0	0	0	0	0
0.25	-9.36617	396.1	-55.4988	-0.248274	0.006	-0.397281	0	-0.909817	0	-2.2381	400.138	51.5159	-0.251883	0.006	-0.865302	0	0.062716	0	0	0	0	0	0	0	0	0	0
0.26	-9.62438	396.66	-55.8646	-0.247759	0.006	-0.39698	0	-0.945238	0	-2.70166	397.089	51.1197	-0.250985	0.006	-0.865517	0	0.104209	0	0	0	0	0	0	0	0	0	0
0.27	-9.81696	397.227	-56.2439	-0.247323	0.006	-0.396693	0	-0.981543	0	-3.16331	393.901	50.7508	-0.250113	0.006	-0.865763	0	0.15121	0	0	0	0	0	0	0	0	0	0
0.28	-9.94612	397.744	-56.6251	-0.246964	0.006	-0.396421	0	-1.01861	0	-3.6175	390.618	50.4176	-0.249277	0.006	-0.866037	0	0.203151	0	0	0	0	0	0	0	0	0	0
0.29	-10.0155	398.138	-56.9936	-0.246675	0.006	-0.396164	0	-1.05633	0	-4.04909	387.274	50.1242	-0.248494	0.006	-0.866337	0	0.259771	0	0	0	0	0	0	0	0	0	0
0.3	-10.026	398.309	-57.3302	-0.246447	0.006	-0.39592	0	-1.09459	0	-4.43017	383.886	49.8696	-0.247777	0.006	-0.866661	0	0.321174	0	0	0	0	0	0	0	0	0	0
0.31	-9.97223	398.13	-57.6099	-0.246273	0.006	-0.395687	0	-1.13327	0	-4.72446	380.447	49.6468	-0.247144	0.006	-0.867004	0	0.387573	0	0	0	0	0	0	0	0	0	0
0.32	-9.84293	397.449	-57.8015	-0.246143	0.006	-0.39546	0	-1.17218	0	-4.90048	376.931	49.4457	-0.246608	0.006	-0.867364	0	0.458853	0	0	0	0	0	0	0	0	0	0
